<svg width="12" height="11" viewBox="0 0 12 11" fill="none" xmlns="http://www.w3.org/2000/svg">
<ellipse cx="4.00277" cy="5.38664" rx="1.5" ry="2.5" transform="rotate(83.3248 4.00277 5.38664)" fill="#D9D9D9"/>
<ellipse cx="5.97465" cy="6.56336" rx="1.5" ry="2.5" transform="rotate(6.03876 5.97465 6.56336)" fill="#D9D9D9"/>
<ellipse cx="4.68492" cy="3.63001" rx="1.5" ry="2.5" transform="rotate(140.848 4.68492 3.63001)" fill="#D9D9D9"/>
<ellipse cx="6.30056" cy="4.16068" rx="1.5" ry="2.5" transform="rotate(23.4825 6.30056 4.16068)" fill="#D9D9D9"/>
<ellipse cx="7.22843" cy="5.34718" rx="1.5" ry="2.5" transform="rotate(95.2957 7.22843 5.34718)" fill="#D9D9D9"/>
<path d="M5.91667 5.21139C5.78404 5.15257 5.69351 5.07342 5.56738 5.16857C5.39217 5.30073 5.53322 5.40861 5.69314 5.49478C5.83191 5.56954 5.87414 5.47049 5.92272 5.34217C5.94741 5.27697 5.6948 5.1901 5.64022 5.18486" stroke="#471B1B" stroke-linecap="round" stroke-dasharray="2 4 6 8"/>
<path d="M5.99696 5.40827C5.78246 5.40827 5.89909 5.38617 5.99045 5.28466C6.05246 5.21576 5.66562 5.20334 5.61638 5.20334C5.51859 5.20334 5.35659 5.41985 5.46187 5.46844C5.49742 5.48485 5.6997 5.57289 5.7042 5.51886C5.70896 5.46181 5.73179 5.39616 5.76275 5.34971" stroke="black" stroke-linecap="round" stroke-dasharray="2 4 6 8"/>
</svg>
